<?xml version="1.0" standalone="no"?>
<!DOCTYPE svg PUBLIC "-//W3C//DTD SVG 20010904//EN"
 "http://www.w3.org/TR/2001/REC-SVG-20010904/DTD/svg10.dtd">
<svg version="1.0" xmlns="http://www.w3.org/2000/svg"
 width="192.000000pt" height="192.000000pt" viewBox="0 0 192.000000 192.000000"
 preserveAspectRatio="xMidYMid meet">
<g transform="translate(0.000000,192.000000) scale(0.100000,-0.100000)"
fill="#000000" stroke="none">
<path d="M0 1561 l0 -359 37 -7 c102 -19 179 -96 198 -198 l7 -37 -121 0 -121
0 0 -360 0 -360 28 0 c92 1 211 120 212 213 l0 27 120 0 c138 0 132 7 105
-108 -22 -91 -60 -158 -129 -228 -68 -68 -137 -107 -224 -128 -50 -13 58 -14
876 -15 l932 -1 0 960 0 960 -360 0 c-407 0 -376 7 -345 -81 29 -80 131 -159
207 -159 16 0 18 -11 18 -120 l0 -120 -28 0 c-15 0 -54 7 -87 15 -170 45 -304
178 -350 348 -13 49 -14 42 -14 -155 l-1 -208 -240 0 -240 0 0 240 0 240 -240
0 -240 0 0 -359z m1642 222 l38 -37 40 39 40 39 32 -32 32 -32 -39 -40 -39
-40 39 -40 39 -40 -32 -32 -32 -32 -40 39 -40 39 -40 -39 -40 -39 -32 32 -32
32 39 40 39 40 -39 40 -39 40 29 30 c16 16 31 30 34 30 3 0 22 -17 43 -37z
m-1162 -464 l0 -121 -37 7 c-102 19 -179 96 -198 198 l-7 37 121 0 121 0 0
-121z m651 -536 l1 -128 24 78 c22 69 28 78 47 75 18 -2 26 -17 44 -78 l22
-75 0 128 1 127 35 0 35 0 0 -191 0 -190 -47 3 -48 3 -22 80 c-12 44 -22 82
-23 85 -1 3 -11 -33 -24 -80 l-22 -85 -47 -3 -47 -3 0 190 0 191 35 0 35 0 1
-127z m511 -440 l38 -37 40 39 40 39 32 -32 32 -32 -39 -40 -39 -40 39 -40 39
-40 -32 -32 -32 -32 -40 39 -40 39 -40 -39 -40 -39 -32 32 -32 32 39 40 39 40
-39 40 -39 40 29 30 c16 16 31 30 34 30 3 0 22 -17 43 -37z"/>
<path d="M600 1795 l-34 -35 39 -40 39 -40 -39 -40 -39 -40 37 -37 37 -37 40
39 40 39 40 -39 40 -39 37 37 37 37 -39 40 -39 40 39 40 39 40 -37 37 -37 37
-40 -39 -40 -39 -38 37 c-21 20 -40 37 -43 37 -3 0 -20 -16 -39 -35z"/>
</g>
</svg>
